<svg width="243" height="270" viewBox="0 0 243 270" fill="none" xmlns="http://www.w3.org/2000/svg">
<path fill-rule="evenodd" clip-rule="evenodd" d="M69.2024 262.771C97.2725 253.868 124.708 235.868 172.949 243.094C221.189 250.321 254.508 191.406 236.676 162.504C228.756 153.17 223.132 140.867 236.676 121.189C249.335 84.075 224.983 60.7731 202.528 49.8003C180.074 38.8275 125.379 16.0307 79.5521 32.0091C33.7251 47.9875 15.1386 73.0862 12.0987 90.5071C9.0588 107.928 21.2048 109.632 23.3778 137.187C25.5509 164.741 -4.37593 210.162 7.79308 235.153C19.9621 260.144 41.1322 271.675 69.2024 262.771Z" fill="#4F56A9"/>
<path fill-rule="evenodd" clip-rule="evenodd" d="M195.745 238.324C194.747 236.951 193.098 236.138 191.581 235.263C187.693 233.021 184.337 230.086 181.025 227.158C174.123 221.057 167.284 214.896 160.508 208.677C158.802 207.111 157.09 205.53 155.715 203.706C152.565 199.528 148.551 195.912 143.954 193.11C143.299 192.711 142.591 192.316 141.807 192.286C140.874 192.25 140.021 192.735 139.246 193.216C133.219 196.957 127.845 201.597 123.394 206.901C122.844 207.556 122.28 208.312 122.382 209.136C122.458 209.745 122.887 210.26 123.303 210.737C128.524 216.74 134.146 222.444 140.127 227.806C141.75 229.261 143.405 230.696 144.844 232.309C146.832 234.538 148.377 237.07 150.163 239.441C158.406 250.387 171.58 257.518 185.395 261.331C187.1 261.802 188.881 262.231 190.641 261.989C194.561 261.449 197.234 257.051 195.697 253.67C194.597 251.249 195.42 248.495 196.121 245.951C196.822 243.407 197.329 240.502 195.745 238.324Z" fill="white"/>
<path fill-rule="evenodd" clip-rule="evenodd" d="M198.35 173.268C199.781 170.332 203.15 168.299 206.63 168.271C208.327 168.257 209.989 168.678 211.625 169.095C218.82 170.93 226.015 172.765 233.21 174.599C235.082 175.077 236.991 175.57 238.604 176.571C240.217 177.573 241.511 179.191 241.536 180.988C241.552 182.167 241.034 183.293 240.456 184.343C239.667 185.775 238.702 187.191 237.255 188.081C234.328 189.88 230.438 189.043 227.062 188.143C219.209 186.05 211.346 183.954 203.714 181.252C201.24 180.376 198.482 179.12 197.85 176.739C197.543 175.584 197.822 174.352 198.35 173.268Z" fill="white"/>
<path fill-rule="evenodd" clip-rule="evenodd" d="M100.273 232.463C103.488 230.877 108.012 232.35 109.445 235.45C110.384 237.481 110.072 239.797 109.743 241.985C108.867 247.808 107.991 253.632 107.116 259.455C106.936 260.65 106.755 261.851 106.369 263.003C105.63 265.21 104.068 267.242 101.848 268.299C99.6288 269.356 96.7368 269.293 94.7769 267.863C93.3087 266.791 92.493 265.096 92.2015 263.386C91.9101 261.677 92.0898 259.931 92.2936 258.211C92.9604 252.582 93.8794 246.979 95.0475 241.421C95.7724 237.971 96.9223 234.117 100.273 232.463Z" fill="white"/>
<path fill-rule="evenodd" clip-rule="evenodd" d="M23.3339 116.56C22.9751 116.122 23.5883 115.572 24.1153 115.319C30.1558 112.423 36.2643 109.649 42.4349 106.999C44.0476 106.306 45.6909 105.615 47.4483 105.366C49.2057 105.117 51.1217 105.363 52.5118 106.388C54.1592 107.604 54.7805 109.672 54.8828 111.619C54.9674 113.228 54.7096 114.965 53.544 116.162C53.0086 116.711 52.3184 117.108 51.6355 117.493C45.3367 121.043 38.8076 124.243 32.0951 127.07C30.0645 127.926 27.7222 128.753 25.6733 127.936C24.9044 127.63 24.2525 127.111 23.7056 126.524C21.1708 123.804 21.0078 119.435 23.3339 116.56Z" fill="white"/>
<path fill-rule="evenodd" clip-rule="evenodd" d="M83.6069 60.3758C83.2298 63.1504 84.6143 66.0703 87.076 67.692C88.2381 68.4576 88.666 69.9202 88.4816 71.2293C88.2971 72.5383 87.6035 73.7332 86.8956 74.8793C86.3646 75.7387 85.7936 76.6158 84.923 77.1911C84.0525 77.7664 82.7991 77.9628 81.9215 77.3968C78.5543 75.2253 73.992 76.0737 70.0143 77.0091C68.6957 77.3192 67.4133 76.4817 66.3524 75.6935C65.0059 74.6932 63.6595 73.6928 62.3131 72.6925C61.8297 72.3334 61.3325 71.9588 61.0489 71.4487C60.6972 70.8159 60.7234 70.0644 60.8105 69.3574C61.2463 65.8181 62.9732 62.5328 64.8545 59.4251C66.7979 56.2147 69.5162 52.7616 73.4816 52.4894C74.5157 52.4184 75.6599 52.6317 76.3149 53.3758C77.4778 54.697 79.2734 55.3597 80.8242 56.2784C82.375 57.1972 83.8367 58.685 83.6069 60.3758Z" fill="white"/>
<path fill-rule="evenodd" clip-rule="evenodd" d="M60.2414 68.1161C59.0731 69.0735 57.3802 69.3275 55.8382 69.106C54.2963 68.8845 52.8661 68.2429 51.4785 67.5823C44.1843 64.1098 37.3096 59.8833 31.0233 55.0065C30.541 54.6323 30.053 54.2446 29.7324 53.7433C29.3557 53.1543 29.2402 52.4562 29.1675 51.775C28.3916 44.5088 31.9644 36.9726 38.2672 32.5808C40.8373 30.7899 44.509 29.5318 47.1705 31.2044C53.2448 35.0216 59.1955 39.0073 65.0119 43.1542C67.5545 44.967 70.1271 46.8679 71.7862 49.4106C72.3565 50.2845 72.7672 51.5121 71.9947 52.2409C71.0349 49.4869 56.3317 68.3575 60.2414 68.1161Z" fill="white"/>
<path fill-rule="evenodd" clip-rule="evenodd" d="M16.7179 247.094C13.5116 248.167 9.18758 246.933 8.31874 243.882C6.86603 238.78 14.8727 236.172 17.8638 231.68C21.4139 226.349 17.1583 219.616 12.9767 214.692C10.0095 216.988 5.68764 219.347 2.63166 217.153C-1.06893 214.497 2.04504 208.945 5.81881 206.378C12.5873 201.775 21.2432 199.613 29.5948 200.44C31.721 185.784 39.8559 171.944 51.9952 162.329C64.1345 152.714 80.1664 147.414 96.1406 147.733C94.3549 119.068 112.312 90.1603 139.977 77.1645C142.98 75.7538 146.195 74.4946 149.563 74.5133C152.93 74.532 156.486 76.1186 157.764 79.0022C159.042 81.8859 157.06 85.8433 153.705 86.1067C152.142 86.2294 138.581 90.6974 139.977 90.4149C157.764 86.8153 200.34 115.531 223.262 115.531C225.32 115.531 230.661 108.508 232.109 107.569C233.438 106.707 237.099 106.219 238.699 106.473C242.87 107.137 242.577 112.837 240.783 116.385C230.082 137.543 206.109 150.858 181.465 155.915C156.82 160.972 131.205 158.973 106.057 156.949C104.317 173.594 101.86 191.696 88.9917 203.436C76.7579 214.597 57.4074 217.051 40.8456 212.829C40.8456 210.528 40.8456 210.528 40.9872 204.229C38.1144 217.304 32.3388 229.827 24.1242 240.793C22.1814 243.386 19.9242 246.02 16.7179 247.094Z" fill="white"/>
<path d="M190.337 44.323C189.32 45.5488 188.303 46.7745 187.286 48.0003C186.737 48.6621 185.662 49.3573 185.077 48.722C184.054 47.6099 182.162 47.9233 180.617 47.6274C179.616 47.4357 178.71 46.9581 177.823 46.4874C165.004 39.682 152.185 32.8765 139.367 26.071C138.354 25.5333 137.257 24.901 136.921 23.866C139.848 19.1255 144.788 12.5951 145.07 12.7529C148.145 14.8033 151.275 16.7824 154.457 18.6877C164.551 24.7322 175.145 30.0232 185.451 35.7523C186.454 36.3098 187.554 37.0017 187.741 38.0705C187.884 38.8935 187.232 40.9318 187.848 40.5372C188.179 40.3247 188.628 40.5156 188.974 40.7071C190.021 41.286 191.221 42.1674 190.968 43.2711C190.877 43.6668 190.603 44.0021 190.337 44.323Z" fill="white"/>
<path fill-rule="evenodd" clip-rule="evenodd" d="M137.091 91.5866C137.818 91.4763 138.475 91.0261 138.802 90.4148C144.21 90.9093 149.57 91.8446 154.802 93.2064C166.641 96.2882 177.69 101.511 188.439 107.043C199.448 112.709 211.817 116.097 224.385 116.889C224.48 117.525 223.9 118.113 223.24 118.31C222.581 118.507 221.865 118.412 221.18 118.314C210.76 116.83 200.016 115.237 191.074 110.07C181.949 104.797 172.257 100.366 162.187 96.8632C159.59 95.9597 156.966 95.1175 154.301 94.4012C148.696 92.8946 142.915 91.9491 137.091 91.5866Z" fill="#262A56"/>
<path fill-rule="evenodd" clip-rule="evenodd" d="M198.351 173.268C199.782 170.332 203.151 168.299 206.631 168.271C208.328 168.257 209.99 168.678 211.626 169.095C218.821 170.93 226.016 172.765 233.21 174.599C235.083 175.077 236.992 175.57 238.605 176.571C240.218 177.573 241.512 179.191 241.537 180.988C241.553 182.167 241.035 183.293 240.457 184.343C239.668 185.775 238.703 187.191 237.256 188.081C234.329 189.88 230.439 189.043 227.063 188.143C219.21 186.05 211.347 183.954 203.715 181.252C201.241 180.376 198.483 179.12 197.851 176.739C197.544 175.584 197.822 174.352 198.351 173.268ZM216.797 181.392C216.584 182.755 216.888 184.566 218.347 184.837C221.894 185.496 225.406 186.311 228.87 187.277C231.08 187.894 233.499 188.567 235.63 187.746C237.229 187.129 238.343 185.777 239.288 184.433C240.366 182.902 241.344 180.926 240.384 179.33C239.743 178.263 238.426 177.733 237.194 177.296C232.467 175.619 227.62 174.234 222.694 173.153C221.228 172.832 219.927 174.069 219.153 175.265C217.941 177.137 217.135 179.233 216.797 181.392Z" fill="#262A56"/>
<path fill-rule="evenodd" clip-rule="evenodd" d="M66.2535 45.6192C65.889 45.4214 65.4952 45.2357 65.0728 45.2325C64.6175 45.2291 64.1951 45.4375 63.801 45.6484C56.2245 49.7037 50.7528 56.9741 49.2696 64.9571C52.3415 67.2084 56.3327 68.3575 60.2424 68.1161C59.0741 69.0735 57.3812 69.3275 55.8392 69.106C54.2972 68.8845 52.8671 68.2429 51.4795 67.5823C44.1853 64.1098 37.3106 59.8833 31.0243 55.0065C30.5419 54.6323 30.054 54.2446 29.7334 53.7433C29.3567 53.1543 29.2412 52.4562 29.1685 51.775C28.3926 44.5088 31.9654 36.9726 38.2682 32.5808C40.8383 30.7899 44.51 29.5318 47.1715 31.2044C53.2458 35.0216 59.1965 39.0073 65.0129 43.1542C67.5555 44.967 70.1281 46.8679 71.7872 49.4106C72.3575 50.2845 72.7681 51.5121 71.9957 52.2409C71.0358 49.4869 68.9509 47.0826 66.2535 45.6192ZM34.0198 38.0855C33.1555 39.1431 32.3001 40.2256 31.7451 41.448C31.1112 42.844 30.8937 44.3665 30.6822 45.8679C30.3007 48.576 30.0092 51.6124 31.8287 53.7625C32.4798 54.5319 33.3502 55.1123 34.2083 55.6819C38.0427 58.2274 41.8771 60.7728 45.7116 63.3182C46.1699 63.6224 46.6531 63.9361 47.2122 64.0052C47.7713 64.0742 48.4224 63.8069 48.5535 63.2991C50.5499 55.5666 56.0911 48.6749 63.5208 44.6842C63.9956 44.4291 63.5958 43.7616 63.1769 43.4332C59.4385 40.5028 55.4674 37.8267 51.3063 35.4337C51.074 35.3001 50.8288 35.1637 50.5559 35.1478C50.204 35.1274 49.8798 35.3099 49.5838 35.4873C45.9249 37.6798 42.41 40.1704 39.7086 43.3365C37.0072 46.5025 35.1587 50.4128 35.1825 54.4469C34.9866 54.7717 34.4996 54.3319 34.4348 53.9648C33.907 50.9759 35.2735 47.9741 36.9943 45.3982C39.9845 40.9224 44.1542 37.1269 49.0394 34.4343C47.5816 31.8971 43.7161 31.2841 40.8439 32.3758C37.9717 33.4676 35.8928 35.7935 34.0198 38.0855V38.0855Z" fill="#262A56"/>
<path fill-rule="evenodd" clip-rule="evenodd" d="M109.443 235.45C110.382 237.481 110.07 239.797 109.741 241.985L107.114 259.455C106.934 260.65 106.753 261.851 106.367 263.003C105.628 265.21 104.066 267.242 101.846 268.299C99.6268 269.356 96.7349 269.293 94.7749 267.863C93.3067 266.791 92.491 265.096 92.1996 263.386C91.9081 261.677 92.0878 259.931 92.2916 258.211C92.9585 252.582 93.8775 246.979 95.0455 241.421L95.1208 241.069C95.851 237.712 97.034 234.061 100.271 232.463C103.486 230.877 108.01 232.35 109.443 235.45ZM95.55 250.692L95.5506 250.684C95.33 250.789 95.1032 250.903 94.8702 251.025C94.606 252.568 94.3713 254.115 94.1796 255.667C93.9186 257.78 93.7375 259.902 93.6725 262.028L93.6656 262.314C93.6544 263.032 93.701 263.767 94.0764 264.388C94.6457 265.33 95.8314 265.787 96.9616 266.054C98.7649 266.48 100.8 266.56 102.368 265.631C104.261 264.509 104.936 262.281 105.363 260.238C105.757 258.354 106.066 256.455 106.289 254.547L106.317 254.292C106.377 253.694 106.388 253.078 106.1 252.546C105.836 252.057 105.351 251.704 104.854 251.409C104.694 251.315 104.532 251.225 104.367 251.14C103.092 250.721 103.092 250.076 100.519 250.023C98.8308 249.987 97.1077 250.076 95.55 250.692Z" fill="#262A56"/>
<path fill-rule="evenodd" clip-rule="evenodd" d="M23.3349 116.56C22.9761 116.122 23.5893 115.572 24.1163 115.319C30.1568 112.423 36.2653 109.649 42.4359 106.999C44.0486 106.306 45.6918 105.615 47.4493 105.366C49.2067 105.117 51.1227 105.363 52.5128 106.388C54.1602 107.604 54.7815 109.672 54.8838 111.619C54.9684 113.228 54.7106 114.965 53.545 116.162C53.0096 116.711 52.3194 117.108 51.6364 117.493C45.3377 121.043 38.8086 124.243 32.0961 127.07C30.0654 127.926 27.7232 128.753 25.6743 127.936C24.9054 127.63 24.2535 127.111 23.7066 126.524C21.1718 123.804 21.0088 119.435 23.3349 116.56ZM53.0604 108.844C52.6076 107.69 51.4256 106.863 50.1406 106.56C48.8556 106.257 47.4846 106.423 46.2248 106.806C45.278 107.094 44.3791 107.501 43.4837 107.906C41.9341 108.607 40.3845 109.307 38.8349 110.008C38.361 110.223 37.8668 110.453 37.5626 110.851C37.3471 111.134 37.2474 111.477 37.1516 111.811C36.7805 113.107 36.4067 114.453 36.6622 115.772C37.0401 117.723 38.6967 119.213 40.2664 120.561C40.5641 120.816 40.8819 121.082 41.2785 121.163C41.8054 121.27 42.3339 121.027 42.8099 120.793C45.0251 119.7 47.2402 118.608 49.4553 117.515C51.1623 116.673 53.0018 115.697 53.6901 114.024C54.3734 112.363 53.716 110.514 53.0604 108.844Z" fill="#262A56"/>
<path fill-rule="evenodd" clip-rule="evenodd" d="M127.258 4.39456C127.486 4.07938 127.958 3.98129 128.359 4.06083C128.76 4.14038 129.108 4.36207 129.445 4.57892C131.819 6.10826 134.193 7.63759 136.567 9.16692C136.965 9.4228 137.395 9.72532 137.475 10.167C137.302 10.526 136.717 10.356 136.366 10.1346C133.33 8.22128 130.294 6.30792 127.258 4.39456Z" fill="#262A56"/>
<path fill-rule="evenodd" clip-rule="evenodd" d="M156.777 27.8404C156.415 27.7952 156.509 27.2827 156.703 26.9956C157.43 25.9213 158.157 24.847 158.884 23.7727C159.138 23.8166 159.105 24.165 159 24.3842C158.412 25.6129 157.664 26.776 156.777 27.8404Z" fill="#262A56"/>
<path fill-rule="evenodd" clip-rule="evenodd" d="M122.954 206.044C127.35 201.338 132.287 197.065 137.655 193.322C138.896 192.456 140.25 191.588 141.8 191.489C144.261 191.332 146.309 193.113 148.014 194.763C152.499 199.106 156.984 203.449 161.469 207.792C166.758 212.914 172.051 218.039 177.604 222.916C183.553 228.139 189.823 233.092 196.734 237.176C198.851 238.427 199.014 241.268 198.329 243.505C197.644 245.742 196.35 247.879 196.372 250.204C196.381 251.188 196.63 252.154 196.792 253.126C197.265 255.949 196.958 259.01 195.199 261.357C193.44 263.704 189.989 265.081 187.122 264.026C175.971 259.922 164.517 255.64 155.87 247.939C153.722 246.026 151.779 243.927 149.84 241.832C140.727 231.986 131.614 222.141 122.502 212.296C121.905 211.651 121.288 210.969 121.094 210.139C120.744 208.636 121.867 207.207 122.954 206.044M195.745 238.323C194.747 236.951 193.098 236.137 191.581 235.262C187.693 233.021 184.337 230.085 181.025 227.157C174.123 221.057 167.284 214.896 160.508 208.676C158.802 207.11 157.09 205.53 155.715 203.706C152.565 199.528 148.551 195.911 143.954 193.11C143.299 192.71 142.592 192.315 141.807 192.285C140.875 192.25 140.021 192.734 139.246 193.216C133.219 196.957 127.845 201.596 123.394 206.901C122.844 207.556 122.28 208.312 122.382 209.136C122.458 209.745 122.887 210.259 123.303 210.737C128.524 216.74 134.146 222.444 140.127 227.806C141.75 229.261 143.405 230.696 144.844 232.309C146.832 234.537 148.377 237.07 150.163 239.441C158.406 250.387 171.58 257.517 185.395 261.331C187.1 261.801 188.881 262.231 190.641 261.988C194.561 261.448 197.234 257.05 195.697 253.669C194.597 251.249 195.42 248.495 196.121 245.951C196.822 243.406 197.329 240.502 195.745 238.323Z" fill="#262A56"/>
<path fill-rule="evenodd" clip-rule="evenodd" d="M151.014 19.9334C150.504 20.8121 149.993 21.6908 149.483 22.5695C149.283 21.2995 150.193 20.1324 151.053 19.1256C151.297 19.3134 151.165 19.6751 151.014 19.9334L151.014 19.9334Z" fill="#262A56"/>
<path fill-rule="evenodd" clip-rule="evenodd" d="M153.821 22.8727C153.927 23.7924 153.496 24.7506 152.715 25.3279C152.626 24.4092 153.053 23.4605 153.821 22.8727L153.821 22.8727Z" fill="#262A56"/>
<path fill-rule="evenodd" clip-rule="evenodd" d="M166.992 28.4398C166.828 29.3983 166.304 30.3007 165.532 30.9572C165.213 31.2283 164.848 31.4608 164.437 31.5859C164.277 31.3961 164.454 31.1276 164.625 30.9463C165.414 30.1108 166.203 29.2753 166.992 28.4398Z" fill="#262A56"/>
<path fill-rule="evenodd" clip-rule="evenodd" d="M161.149 28.7577C161.283 28.3414 161.52 27.9537 161.835 27.6319C162.152 27.5881 162.119 28.0753 161.941 28.3219C161.654 28.7183 161.368 29.1147 161.082 29.5111C160.776 29.3697 160.778 28.8852 161.085 28.7457L161.149 28.7577Z" fill="#262A56"/>
<path fill-rule="evenodd" clip-rule="evenodd" d="M175.452 33.6419C175.242 34.1255 174.767 34.503 174.219 34.6224C174.639 34.0001 175.059 33.3778 175.48 32.7555C175.674 33.0167 175.662 33.3934 175.452 33.6439L175.452 33.6419Z" fill="#262A56"/>
<path fill-rule="evenodd" clip-rule="evenodd" d="M181.521 37.6859C181.592 37.4454 181.892 37.2856 182.152 37.3493C181.972 37.8287 181.714 38.2832 181.391 38.6931C181.076 38.4373 181.135 37.8954 181.498 37.7028L181.521 37.6859Z" fill="#262A56"/>
<path fill-rule="evenodd" clip-rule="evenodd" d="M83.6059 60.3758C83.2288 63.1504 84.6133 66.0703 87.075 67.692C88.2371 68.4576 88.6651 69.9202 88.4806 71.2293C88.2961 72.5383 87.6026 73.7332 86.8946 74.8793C86.3637 75.7387 85.7926 76.6158 84.9221 77.1911C84.0515 77.7664 82.7982 77.9628 81.9205 77.3968C78.5533 75.2253 73.991 76.0737 70.0133 77.0091C68.6948 77.3192 67.4123 76.4817 66.3514 75.6935C65.005 74.6932 63.6585 73.6928 62.3121 72.6925C61.8287 72.3334 61.3315 71.9588 61.0479 71.4487C60.6962 70.8159 60.7224 70.0644 60.8095 69.3574C61.2453 65.8181 62.9722 62.5328 64.8535 59.4251C66.797 56.2147 69.5153 52.7616 73.4806 52.4894C74.5148 52.4184 75.6589 52.6317 76.3139 53.3758C77.4769 54.697 79.2724 55.3597 80.8232 56.2784C82.3741 57.1972 83.8357 58.685 83.6059 60.3758ZM67.423 60.1191C67.1042 59.9624 66.7358 59.8017 66.3967 59.9163C66.1752 59.9911 66.0168 60.1697 65.8728 60.3425C64.1231 62.4431 62.8308 64.8685 62.0954 67.432C61.8662 68.2309 61.6946 69.0984 62.0209 69.8679C62.2788 70.4762 62.8142 70.941 63.3333 71.3841C64.5041 72.3836 65.6749 73.3831 66.8457 74.3826C67.6519 75.0708 68.6498 75.811 69.7198 75.5884C73.6039 74.7803 77.8513 74.0072 81.4181 75.6438C82.894 76.321 84.7601 75.6043 85.7916 74.4156C86.8232 73.2269 87.2195 71.6848 87.5873 70.1987C84.7007 68.1677 82.5096 65.3025 81.3998 62.1075C81.2448 61.6611 80.5128 61.9401 80.1647 62.2808C78.2248 64.18 76.2849 66.0791 74.345 67.9782C73.0587 69.2376 71.6724 70.7978 72.0574 72.4937C72.1626 72.9572 71.3111 73.1563 70.984 72.7921C70.6568 72.428 70.7498 71.8865 70.8983 71.4334C72.2821 67.2117 76.6221 64.542 79.7692 61.2285C80.3833 60.5819 80.99 59.8095 80.911 58.9517C80.828 58.0504 80.0229 57.3713 79.273 56.7912C77.8256 55.6715 76.3052 54.5272 74.4754 54.1025C72.6456 53.6779 70.4159 54.1962 69.5336 55.7393C72.3354 56.9358 75.0471 58.3128 77.6426 59.8571C78.0105 60.0759 78.392 60.584 78.0273 60.8074C75.8185 59.6669 73.6097 58.5265 71.401 57.3861C70.7135 57.0311 70.0014 56.6687 69.2183 56.5938C68.4352 56.5189 67.5553 56.8074 67.2087 57.4616C66.7627 58.3033 67.3892 59.3381 68.2408 59.8457C69.0924 60.3534 70.1247 60.5163 71.0626 60.8704C72.4358 61.3888 73.6138 62.3385 74.3569 63.5263C72.0456 62.3905 69.7343 61.2548 67.423 60.1191Z" fill="#262A56"/>
<path fill-rule="evenodd" clip-rule="evenodd" d="M177.362 37.5962C177.274 37.8844 177.013 38.1218 176.7 38.1991C176.81 37.3734 177.335 36.603 178.092 36.155C178.11 36.6926 177.804 37.2295 177.316 37.5204L177.362 37.5962Z" fill="#262A56"/>
<path fill-rule="evenodd" clip-rule="evenodd" d="M170.03 33.3098C169.892 33.5973 169.577 33.805 169.238 33.8319C169.314 33.2974 169.549 32.7831 169.911 32.3606C170.052 32.1952 170.232 32.0344 170.459 32.0111C170.686 31.9878 170.94 32.1776 170.88 32.3812C170.585 32.6766 170.291 32.9721 169.996 33.2676L170.03 33.3098Z" fill="#262A56"/>
<path fill-rule="evenodd" clip-rule="evenodd" d="M122.877 102.165C122.937 102.317 122.651 102.448 122.557 102.312C122.501 102.169 122.542 101.999 122.658 101.892C122.743 101.971 122.828 102.05 122.913 102.128L122.877 102.165Z" fill="#262A56"/>
<path fill-rule="evenodd" clip-rule="evenodd" d="M190.74 48.1783C191.176 47.9204 191.623 47.6524 191.919 47.2595C192.214 46.8667 192.323 46.3134 192.043 45.9111C191.509 45.847 191.013 45.549 190.733 45.1235C190.721 44.8685 191.001 44.638 191.273 44.6792C191.799 44.8919 192.347 45.1198 192.703 45.5359C193.059 45.9519 193.147 46.6169 192.738 46.9888C196.721 49.5235 200.705 52.0582 204.688 54.5929C204.448 54.7556 204.112 54.6524 203.842 54.5386C200.285 53.0431 197.289 50.6296 194.037 48.6258C193.282 48.1608 192.153 47.7589 191.58 48.4092C190.813 49.2798 189.027 48.9823 188.636 47.9188C188.563 47.5215 189.286 47.4991 189.619 47.759C189.952 48.0189 190.373 48.3955 190.74 48.1783Z" fill="#262A56"/>
<path fill-rule="evenodd" clip-rule="evenodd" d="M183.829 238.259C184.542 237.401 185.275 236.556 186.026 235.726C186.247 235.482 186.475 235.235 186.763 235.06C187.863 234.394 189.321 234.997 190.419 235.663C191.631 236.399 192.787 237.215 193.874 238.102C194.775 238.836 195.67 239.687 195.916 240.775C196.162 241.863 195.455 243.197 194.259 243.293C193.525 244.524 192.479 245.594 191.228 246.392C190.519 246.844 189.548 246.566 188.777 246.208C186.568 245.185 184.662 243.61 183.312 241.696C183.096 241.39 182.891 241.068 182.813 240.711C182.621 239.825 183.234 238.976 183.829 238.259ZM191.072 245.885C191.729 245.018 192.387 244.152 193.044 243.286C192.412 242.593 191.257 242.592 190.429 242.106C189.976 241.841 189.638 241.44 189.31 241.048C188.349 239.898 187.388 238.748 186.427 237.599C185.625 238.374 184.881 239.2 184.201 240.069C184.102 240.196 184.001 240.332 183.983 240.487C183.963 240.665 184.056 240.836 184.15 240.993C185.604 243.406 188.173 245.222 191.072 245.885ZM189.848 236.244C189.233 235.853 188.282 235.505 187.849 236.068C187.587 236.41 187.723 236.883 187.897 237.27C188.862 239.415 190.739 241.196 193.033 242.14C193.692 242.411 194.693 242.487 194.916 241.853C194.999 241.618 194.93 241.362 194.842 241.128C194.036 238.971 191.881 237.536 189.848 236.244Z" fill="#262A56"/>
<path fill-rule="evenodd" clip-rule="evenodd" d="M133.251 207.935C132.863 208.456 132.474 208.977 132.085 209.498C131.717 209.993 131.336 210.518 131.288 211.117C131.245 211.652 131.476 212.171 131.732 212.653C132.857 214.768 134.575 216.611 136.671 217.952C136.094 218.612 134.939 218.226 134.207 217.714C132.272 216.363 130.814 214.437 130.102 212.293C129.927 211.769 129.796 211.22 129.86 210.675C129.995 209.54 130.93 208.647 131.813 207.85C132.883 206.883 134.122 205.851 135.618 205.871C136.601 205.884 137.506 206.363 138.289 206.913C140.55 208.498 142.273 211.079 141.771 213.662C141.648 214.297 141.133 215.047 140.463 214.871C138.026 214.228 135.862 212.736 134.497 210.76C134.21 210.344 133.935 209.887 133.468 209.648C133.454 209.072 133.382 208.498 133.251 207.935ZM135.546 207.614C134.91 207.984 134.835 208.837 135.075 209.495C135.722 211.261 137.861 212.103 139.178 213.515C139.349 213.697 139.523 213.902 139.775 213.968C140.156 214.068 140.557 213.787 140.695 213.443C140.832 213.099 140.773 212.717 140.699 212.357C140.485 211.319 140.156 210.285 139.542 209.395C138.927 208.505 138 207.765 136.893 207.507C136.444 207.402 135.938 207.385 135.546 207.614Z" fill="#262A56"/>
<path fill-rule="evenodd" clip-rule="evenodd" d="M178.481 224.759C178.93 224.961 179.167 225.415 179.372 225.836C179.681 226.471 179.989 227.106 180.298 227.741C180.427 228.007 180.558 228.28 180.569 228.571C180.587 229.006 180.345 229.489 180.609 229.849C179.37 230.758 178.205 231.755 177.131 232.829C176.838 233.121 176.537 233.429 176.136 233.574C175.385 233.847 174.55 233.469 173.891 233.039C172.338 232.028 171.058 230.661 170.197 229.096C169.758 228.298 169.49 227.189 170.234 226.617C170.474 226.433 170.552 226.129 170.64 225.852C171.053 224.561 172.014 223.428 173.272 222.751C173.454 222.653 173.65 222.562 173.86 222.554C174.043 222.548 174.221 222.605 174.394 222.662C175.313 222.963 176.233 223.265 177.152 223.566C177.537 223.692 178.002 223.932 177.945 224.306C177.909 224.545 178.246 224.653 178.481 224.759M171.557 225.491C171.127 226.341 170.695 227.28 170.949 228.188C171.047 228.541 171.245 228.864 171.463 229.168C172.255 230.28 173.338 231.214 174.592 231.868C175.4 232.288 176.483 232.57 177.197 232.023C177.746 231.602 177.923 230.786 178.596 230.569C178.953 230.453 178.975 229.952 178.73 229.685C178.485 229.418 178.095 229.319 177.738 229.204C175.745 228.561 174.138 226.975 173.573 225.094C173.522 224.926 173.476 224.75 173.356 224.615C173.096 224.325 172.578 224.354 172.248 224.574C171.918 224.795 171.73 225.15 171.557 225.491M179.362 228.55C179.885 227.638 179.064 226.584 178.297 225.833C177.829 225.375 177.361 224.917 176.893 224.459C176.539 224.111 176.158 223.749 175.66 223.624C175.162 223.499 174.523 223.723 174.425 224.192C174.383 224.394 174.446 224.602 174.519 224.796C175.248 226.728 177.179 228.226 179.362 228.55H179.362Z" fill="#262A56"/>
<path fill-rule="evenodd" clip-rule="evenodd" d="M168.473 235.06C170.088 235.32 171.329 236.485 172.452 237.59C172.905 238.036 173.363 238.488 173.674 239.027C174.41 240.302 174.209 241.899 173.534 243.203C172.86 244.506 171.768 245.578 170.693 246.626C170.056 247.247 169.274 247.92 168.356 247.819C168.014 247.781 167.699 247.636 167.398 247.483C164.71 246.114 162.554 243.87 161.401 241.239C161.249 240.893 161.112 240.523 161.17 240.154C161.227 239.791 161.463 239.478 161.693 239.18C162.523 238.102 163.369 237.009 164.49 236.186C165.611 235.364 167.063 234.833 168.473 235.06M163.117 239.648C162.69 240.049 162.19 240.479 162.169 241.042C162.16 241.296 162.254 241.544 162.362 241.778C163.369 243.956 165.596 245.402 167.716 246.731C167.854 246.818 168.001 246.907 168.168 246.917C168.352 246.928 168.525 246.839 168.68 246.746C169.448 246.286 170.079 245.659 170.701 245.038C171.012 244.727 171.338 244.39 171.405 243.97C171.471 243.551 171.138 243.054 170.682 243.092C169.726 243.171 168.803 242.717 168.081 242.133C166.809 241.105 165.974 239.627 165.786 238.075C165.722 237.539 165.707 236.942 165.299 236.558C164.803 237.708 164.056 238.765 163.117 239.648ZM168.051 236.348C167.649 236.32 167.216 236.379 166.91 236.623C166.208 237.184 166.589 238.249 167.102 238.964C167.881 240.05 168.855 241.015 169.973 241.807C170.396 242.108 170.854 242.389 171.375 242.493C171.897 242.597 172.496 242.489 172.842 242.113C173.189 241.735 173.208 241.172 173.033 240.703C172.859 240.234 172.521 239.835 172.2 239.438C171.101 238.078 169.881 236.479 168.051 236.348V236.348Z" fill="#262A56"/>
<path fill-rule="evenodd" clip-rule="evenodd" d="M152.808 233.288C152.209 233.713 151.371 233.764 150.648 233.563C149.925 233.363 149.299 232.941 148.727 232.485C147.336 231.374 146.18 230.011 145.344 228.496C144.898 227.689 144.536 226.803 144.608 225.899C144.714 224.547 145.753 223.428 146.801 222.481C147.293 222.036 147.833 221.587 148.504 221.447C149.159 221.31 149.842 221.489 150.465 221.719C153.625 222.887 156.115 225.501 156.971 228.548C156.504 230.585 154.595 232.023 152.808 233.288ZM150.383 231.992C151.063 232.365 151.876 232.683 152.626 232.45C153.367 232.219 153.809 231.52 154.088 230.843C153.229 229.912 151.938 229.426 150.94 228.622C149.166 227.194 148.502 224.948 147.925 222.839C146.948 223.589 146.168 224.558 145.671 225.639C145.528 225.949 145.407 226.283 145.445 226.618C145.473 226.86 145.583 227.086 145.698 227.304C146.726 229.242 148.375 230.893 150.383 231.992ZM148.722 223.665C148.683 223.995 148.86 224.312 149.04 224.599C150.137 226.343 151.601 227.889 153.327 229.124C153.853 229.5 154.577 229.858 155.143 229.535C155.481 229.342 155.637 228.958 155.67 228.592C155.76 227.608 155.145 226.697 154.516 225.899C153.579 224.709 152.491 223.537 151.018 222.981C150.585 222.817 150.106 222.711 149.65 222.804C149.193 222.898 148.771 223.234 148.722 223.665V223.665Z" fill="#262A56"/>
<path fill-rule="evenodd" clip-rule="evenodd" d="M118.529 8.71136C117.878 9.50616 117.338 10.8571 118.3 11.3075C119.054 11.6608 119.871 10.9752 120.393 10.3597C122.44 7.94548 124.488 5.53123 126.536 3.11697C127.035 3.94057 126.463 4.94872 125.905 5.73953C124.357 7.93387 122.719 10.2081 120.265 11.5162C124.492 13.4404 128.522 15.7325 132.287 18.3525C133.898 17.7873 135.236 16.5874 135.896 15.115C135.438 15.5194 134.691 15.2152 134.16 14.8962C130.815 12.8859 127.539 10.7761 124.34 8.57103C124.565 8.00863 125.479 8.25244 126.014 8.59098C128.978 10.4669 131.943 12.3427 134.907 14.2186C135.631 14.6771 136.527 13.9346 137.034 13.2712C138.145 11.8154 139.256 10.3596 140.367 8.9038C140.775 8.36889 141.221 7.80613 141.88 7.56886C143.006 7.16384 144.216 7.8538 145.193 8.51071C145.48 8.70334 145.781 8.91275 145.908 9.21851C146.129 9.74739 145.754 10.3154 145.396 10.7757C141.915 15.2544 138.434 19.7332 134.953 24.2119C134.795 24.4154 134.63 24.625 134.395 24.7494C133.794 25.0671 133.036 24.7022 132.536 24.2598C131.828 23.6346 130.758 22.5917 131.381 21.5432C132.004 20.4946 132.031 20.4475 132.555 19.6476C128.137 16.5428 123.534 13.3561 118.118 12.2474C117.195 12.0585 116.693 11.0561 116.803 10.1873C116.913 9.31854 117.467 8.5608 118.006 7.8419C119.285 6.13445 120.563 4.427 121.842 2.71955C122.171 2.28043 122.507 1.83392 122.965 1.50775C123.797 0.914257 125.001 0.80686 125.94 1.24236C126.879 1.67785 127.507 2.63464 127.491 3.60674C126.924 3.09368 126.334 2.5664 125.589 2.31456C124.844 2.06272 123.898 2.1644 123.419 2.74888C121.789 4.73637 120.159 6.72387 118.529 8.71136ZM131.857 21.8956C131.857 22.7944 132.61 23.2841 133.183 23.4886C133.755 23.6931 134.496 23.6118 134.852 23.1491C137.991 19.0674 141.13 14.9856 144.269 10.9038C144.406 10.7257 144.546 10.5425 144.606 10.3311C144.735 9.87893 144.462 9.39428 144.066 9.10312C143.671 8.81196 143.173 8.67358 142.688 8.54148C142.47 8.48193 142.228 8.42357 142.021 8.51173C141.881 8.57123 141.782 8.68831 141.689 8.80129C139.063 11.9739 136.559 15.2326 134.183 18.5692C134.089 18.4008 132.497 20.5322 131.857 21.8956Z" fill="#262A56"/>
<path fill-rule="evenodd" clip-rule="evenodd" d="M85.1116 70.1434C85.0081 70.7667 84.4526 71.2241 84.0113 71.7047C83.0449 72.7571 82.5388 74.0963 82.0528 75.4021C81.4813 74.8257 81.3897 73.9471 81.6074 73.1912C81.825 72.4353 82.3066 71.7716 82.7801 71.1236C83.0524 70.7511 83.337 70.3674 83.7506 70.1313C84.1641 69.8952 84.7454 69.8478 85.1116 70.1434L85.1116 70.1434Z" fill="#262A56"/>
<path fill-rule="evenodd" clip-rule="evenodd" d="M190.337 44.3231C189.32 45.5489 188.303 46.7746 187.286 48.0004C186.737 48.6621 185.662 49.3573 185.077 48.7221C184.054 47.61 182.162 47.9233 180.617 47.6274C179.616 47.4358 178.71 46.9582 177.823 46.4875C165.004 39.682 152.185 32.8766 139.367 26.0711C138.354 25.5334 137.257 24.9011 136.921 23.8661C150.633 30.6745 164.116 37.8791 177.342 45.466C178.965 46.3966 181.202 47.2971 182.605 46.0997C183.008 45.7559 183.256 45.2882 183.496 44.8318C184.729 42.4793 185.962 40.1268 187.195 37.7743C173.347 29.5327 158.234 23.1071 145.083 13.9398C144.819 13.7562 144.537 13.542 144.484 13.2408C144.431 12.9396 144.788 12.5952 145.07 12.753C148.145 14.8034 151.275 16.7825 154.457 18.6878C164.551 24.7323 175.145 30.0232 185.451 35.7524C186.454 36.3099 187.554 37.0017 187.741 38.0706C187.884 38.8936 187.433 39.6948 186.997 40.4242C186.099 41.9249 185.201 43.4256 184.303 44.9263C183.987 45.4549 183.66 46.0486 183.814 46.6358C184.054 47.5534 185.391 47.8865 186.327 47.5107C187.263 47.1348 187.874 46.304 188.434 45.5145C188.945 44.7926 189.457 44.0707 189.968 43.3488C190.379 42.7692 189.445 42.1978 188.733 41.9831C188.021 41.7685 187.232 40.9318 187.848 40.5372C188.179 40.3247 188.628 40.5157 188.974 40.7072C190.021 41.2861 191.221 42.1674 190.968 43.2712C190.877 43.6669 190.603 44.0022 190.337 44.3231Z" fill="#262A56"/>
<path fill-rule="evenodd" clip-rule="evenodd" d="M78.9999 58.66C79.2134 58.7733 79.4423 58.9028 79.5286 59.1162C79.615 59.3295 79.4499 59.6309 79.2064 59.598C76.9491 58.3966 74.6918 57.1952 72.4346 55.9938C72.4755 55.7561 72.7616 55.6098 73.0215 55.6188C73.2813 55.6278 73.5185 55.7507 73.7441 55.8705C75.496 56.8003 77.2479 57.7301 78.9999 58.66Z" fill="#262A56"/>
<path fill-rule="evenodd" clip-rule="evenodd" d="M46.7621 46.9849C46.2874 45.8546 46.9791 44.605 47.7527 43.6264C48.9322 42.1342 50.3593 40.81 51.9686 39.7144C52.3691 39.4418 52.983 39.2006 53.3058 39.5507C53.6968 39.9747 53.1001 40.5544 52.6026 40.8685C50.502 42.1948 49.0377 44.2004 47.6092 46.1473C47.3747 46.4667 47.1267 46.7973 46.7621 46.9849L46.7621 46.9849Z" fill="#262A56"/>
<path fill-rule="evenodd" clip-rule="evenodd" d="M166.574 217.857C165.031 218.873 163.488 219.888 161.946 220.904C161.385 221.273 160.7 221.66 160.055 221.44C157.751 220.653 156.138 218.699 155.067 216.655C154.647 215.854 154.285 214.939 154.58 214.092C154.728 213.668 155.029 213.306 155.324 212.953C156.237 211.863 157.315 210.684 158.796 210.542C159.453 210.479 160.113 210.635 160.731 210.852C162.681 211.536 164.365 212.853 165.419 214.519C165.009 214.373 164.575 214.287 164.138 214.262C163.061 212.641 161.111 211.545 159.059 211.408C159.609 212.594 160.287 213.729 161.077 214.792C161.795 215.756 162.685 216.71 163.903 217.027C164.827 217.267 165.967 217.168 166.574 217.857ZM158.757 219.352C159.506 219.922 160.471 220.399 161.412 220.183C162.723 219.881 163.404 218.381 164.721 218.105C162.965 217.922 161.417 216.886 160.32 215.604C159.222 214.322 158.509 212.801 157.809 211.299C157.712 212.729 155.715 213.647 155.807 215.078C155.824 215.341 155.915 215.596 156.018 215.843C156.585 217.204 157.539 218.426 158.757 219.352Z" fill="#262A56"/>
<path fill-rule="evenodd" clip-rule="evenodd" d="M70.479 58.4922C70.8283 58.3004 71.2699 58.4816 71.6239 58.6658C72.7109 59.2311 73.7767 59.8312 74.819 60.4645C75.0249 60.5897 75.2588 60.7915 75.1695 61.004C75.0551 61.2761 74.6155 61.1742 74.3438 61.0257C73.2555 60.4307 72.1671 59.8357 71.0787 59.2407C70.77 59.0719 70.4162 58.8189 70.479 58.4922L70.479 58.4922Z" fill="#262A56"/>
<path fill-rule="evenodd" clip-rule="evenodd" d="M49.2225 49.9405C49.8618 48.2731 50.8532 46.7221 52.1243 45.4007C52.5704 44.937 53.0498 44.5019 53.5289 44.0672C54.2249 43.4355 54.9209 42.8039 55.6169 42.1723C55.8106 41.9965 56.0381 41.8082 56.309 41.8212C56.6541 41.8377 56.8846 42.1968 56.8571 42.5156C56.8296 42.8345 56.6198 43.1121 56.408 43.3648C55.327 44.6544 54.0052 45.7521 52.8349 46.9731C51.6646 48.1941 50.6215 49.5904 50.2675 51.1893C50.1727 51.6178 49.4088 51.5868 49.1711 51.2087C48.9335 50.8307 49.0644 50.3526 49.2225 49.9405Z" fill="#262A56"/>
<path fill-rule="evenodd" clip-rule="evenodd" d="M178.776 251.499C179.136 250.054 179.892 248.695 180.952 247.584C181.417 248.14 180.883 248.907 180.486 249.506C180.165 249.991 179.93 250.524 179.792 251.078C179.751 251.241 179.719 251.413 179.767 251.575C179.807 251.711 179.9 251.827 179.992 251.939C181.56 253.879 183.359 255.958 185.926 256.432C186.43 256.525 186.951 256.278 187.292 255.921C187.633 255.564 187.828 255.112 188.017 254.669C184.892 253.519 182.482 250.836 181.832 247.783C181.806 247.66 181.783 247.529 181.832 247.411C181.899 247.249 182.083 247.158 182.257 247.091C183.497 246.617 184.968 246.695 186.142 247.295C186.597 247.528 187.004 247.832 187.409 248.134C188.036 248.602 188.664 249.07 189.291 249.538C190.323 250.308 191.459 251.297 191.317 252.517C191.239 253.188 190.777 253.759 190.331 254.293C189.36 255.459 188.388 256.624 187.416 257.789C184.016 257.38 180.855 255.51 179.027 252.825C178.888 252.622 178.755 252.408 178.714 252.171C178.675 251.947 178.721 251.719 178.776 251.499ZM186.066 248.463C184.997 247.891 183.728 247.646 182.501 247.773C183.423 250.085 185.233 252.083 187.532 253.327C188.095 253.631 188.782 253.896 189.379 253.655C190.149 253.346 190.326 252.397 190.949 251.876C189.748 251.016 188.547 250.156 187.346 249.297C186.933 249.001 186.518 248.704 186.066 248.463Z" fill="#262A56"/>
<path fill-rule="evenodd" clip-rule="evenodd" d="M145.714 197.817C147.349 196.92 149.539 197.698 150.829 198.99C152.119 200.283 152.803 201.981 153.757 203.503C153.576 203.571 153.394 203.64 153.213 203.708C152.3 201.45 150.709 199.431 148.666 197.935C148.332 197.69 147.706 197.536 147.596 197.918C147.564 198.027 147.6 198.142 147.635 198.25C147.841 198.88 148.046 199.51 148.252 200.14C148.378 200.527 148.505 200.916 148.695 201.28C149.387 202.606 150.813 203.447 152.169 204.218C152.482 204.396 152.284 204.861 151.988 205.062C151.692 205.262 151.296 205.414 151.207 205.743C151.086 204.396 149.481 203.666 148.612 202.58C148.295 202.184 148.074 201.732 147.855 201.284C147.391 200.335 146.928 199.386 146.464 198.438C145.892 198.947 145.319 199.457 144.746 199.967C144.481 200.203 144.207 200.452 144.08 200.772C143.901 201.226 144.053 201.732 144.252 202.179C144.623 203.012 145.159 203.782 145.825 204.44C146.231 204.841 146.69 205.206 147.003 205.674C147.316 206.142 147.459 206.756 147.18 207.242C145.658 206.075 144.375 204.643 143.416 203.043C143.042 202.418 142.71 201.735 142.746 201.021C142.821 199.553 144.348 198.567 145.714 197.817V197.817Z" fill="#262A56"/>
<path fill-rule="evenodd" clip-rule="evenodd" d="M24.1242 240.793C22.1814 243.386 19.9242 246.02 16.7179 247.093C13.5116 248.167 9.18758 246.933 8.31874 243.882C6.86603 238.78 14.8727 236.172 17.8638 231.68C21.4139 226.349 17.1583 219.615 12.9767 214.692C10.0095 216.987 5.68764 219.347 2.63166 217.153C-1.06893 214.497 2.04504 208.944 5.81881 206.378C12.5873 201.775 21.2432 199.613 29.5948 200.44C31.721 185.784 39.8559 171.944 51.9952 162.329C64.1345 152.714 80.1664 147.413 96.1406 147.733C94.3549 119.068 112.312 90.1601 139.977 77.1643C142.98 75.7536 146.195 74.4944 149.563 74.5131C152.93 74.5319 156.486 76.1184 157.764 79.0021C159.042 81.8857 157.06 85.8431 153.705 86.1066C140.783 87.1209 128.511 93.7832 121.249 103.727C138.436 102.502 154.698 110.299 169.872 117.869C176.056 120.953 182.239 124.038 188.423 127.123C194.426 130.117 201.087 133.21 207.759 131.903C220.099 129.487 223.857 114.525 234.186 107.826C235.516 106.964 237.099 106.219 238.699 106.473C242.87 107.137 242.577 112.837 240.783 116.384C230.082 137.543 206.109 150.858 181.465 155.915C156.82 160.972 131.205 158.973 106.057 156.949C104.317 173.594 101.86 191.695 88.9917 203.435C76.7579 214.597 57.4074 217.051 40.8456 212.828C49.6561 213.429 58.5795 213.891 67.2704 212.424C75.9613 210.956 84.5139 207.366 90.1614 201.079C93.5419 197.315 95.7391 192.77 97.5845 188.184C101.574 178.269 104.113 167.855 105.11 157.315C102.032 157.509 98.9548 157.702 95.8773 157.895C96.6569 171.93 92.8806 186.769 82.4453 196.98C72.0101 207.19 54.0747 211.357 40.9872 204.229C38.1144 217.304 32.3388 229.827 24.1242 240.793ZM57.6212 206.558C62.709 205.823 67.6831 204.417 72.3471 202.397C69.4576 200.263 66.6677 197.966 64.467 195.217C59.781 189.363 58.0057 181.775 52.9018 176.228C46.7726 184.094 42.7551 193.359 41.3079 202.964C41.2753 203.181 41.2485 203.418 41.375 203.602C41.5063 203.794 41.7626 203.871 41.9984 203.932C45.8985 204.956 49.8627 205.771 53.8645 206.372C51.6448 204.137 49.4089 201.883 47.7204 199.281C46.032 196.679 44.9089 193.671 45.1288 190.642C47.2085 195.683 50.1828 200.406 53.8964 204.565C54.8543 205.638 56.1354 206.773 57.6212 206.558ZM241.732 112.041C242.884 109.409 238.956 106.895 236.025 107.734C233.093 108.572 231.276 111.194 229.567 113.553C219.983 126.781 206.016 137.247 190.043 143.172C165.439 152.298 137.947 150.48 111.463 149.48C99.0109 149.01 86.3027 148.781 74.3607 152.08C56.9733 156.883 42.2866 169.416 35.7063 185.066C31.907 194.102 30.738 203.873 28.1391 213.266C25.5402 222.659 21.1025 232.178 12.6434 237.898C11.1089 238.935 9.32993 240.002 8.90326 241.716C8.26895 244.264 11.3323 246.578 14.1517 246.41C16.9712 246.242 19.3375 244.422 21.2725 242.517C40.9417 223.148 36.4284 189.653 56.7335 170.855C66.3077 161.991 80.0549 157.955 93.5442 156.849C107.033 155.742 120.589 157.251 134.114 157.88C155.184 158.86 176.758 157.62 196.439 150.59C216.12 143.559 233.813 130.137 241.732 112.041M114.437 117.395C114.003 117.64 113.742 118.074 113.507 118.492C108.539 127.312 106.083 137.331 106.451 147.271C105.918 147.248 105.709 146.628 105.653 146.137C104.342 134.559 109.542 123.295 114.628 112.648C116.169 109.423 117.721 106.179 119.848 103.253C123.809 97.8006 129.571 93.705 135.441 90.009C137.395 88.7788 139.4 87.5684 141.639 86.8673C143.128 86.4009 144.689 86.1701 146.242 85.9412C148.175 85.6562 150.108 85.3712 152.041 85.0862C154.048 84.7903 156.348 84.3064 157.263 82.6266C158.548 80.2674 155.959 77.5195 153.21 76.8075C149.742 75.9094 146.047 76.8292 142.655 77.9472C137.457 79.6604 132.412 81.8669 127.962 84.8868C124.411 87.2968 121.276 90.1986 118.399 93.2843C104.83 107.84 96.9401 126.837 96.4823 146.056C96.4719 146.495 96.4701 146.953 96.6867 147.343C97.2057 148.277 98.6022 148.325 99.7346 148.259C107.818 147.789 115.952 148.077 123.973 149.117C120.057 145.697 116.075 142.233 111.306 139.919C109.796 139.186 108.117 138.491 107.285 137.113C110.564 137.603 113.696 138.908 116.266 140.855C118.336 142.423 120.025 144.38 122.039 146.01C124.053 147.64 126.554 148.975 129.228 148.897C136.726 148.679 144.235 148.804 151.72 149.271C145.748 145.593 140.826 140.665 135.425 136.296C130.025 131.927 123.834 127.989 116.748 126.955C114.771 126.666 112.283 126.262 111.788 124.467C119.269 124.836 126.281 128.068 132.326 132.162C138.371 136.257 143.646 141.233 149.338 145.74C151.371 147.349 153.782 148.993 156.438 148.698C164.759 147.773 173.143 146.835 181.106 144.417C161.735 138.045 146.436 122.784 126.373 118.631C123.054 117.944 119.669 117.579 116.291 117.216C115.662 117.148 114.979 117.091 114.437 117.395ZM190.749 129.571C188.542 128.581 186.335 127.591 184.128 126.601C180.975 125.186 177.822 123.772 174.716 122.273C167.481 118.784 160.502 114.841 153.137 111.593C145.773 108.345 137.928 105.781 129.788 105.277C127.718 105.148 125.614 105.15 123.614 104.637C122.363 104.316 121.002 104.856 120.08 105.701C119.157 106.547 118.586 107.658 118.033 108.745C116.801 111.169 115.568 113.593 114.336 116.016C123.833 115.196 133.175 118.487 141.712 122.427C149.798 126.159 157.529 130.522 165.05 135.158C168.463 137.262 171.86 139.435 175.614 140.962C179.368 142.489 183.559 143.344 187.594 142.669C194.51 141.512 199.727 136.195 206.301 133.896C200.835 134.038 195.67 131.779 190.749 129.571ZM65.9588 166.152C68.0268 170.884 70.9587 175.333 74.8797 178.923C78.8007 182.512 83.742 185.216 89.1366 186.277C90.3928 182.024 91.5949 177.756 92.7425 173.476C92.8513 173.071 92.8996 172.532 92.497 172.343C86.7326 169.63 81.5449 165.872 77.3145 161.345C77.3509 160.875 77.9609 160.595 78.4612 160.683C78.9615 160.77 79.3623 161.106 79.7326 161.429C83.8577 165.032 87.9155 168.956 93.1802 170.908C94.3758 167.273 95.1896 163.53 95.6065 159.75C95.6832 159.054 95.4984 158.084 94.7429 158.082C79.8424 158.03 65.0172 163.772 54.5974 173.63C53.8749 174.313 53.8324 175.425 54.1964 176.32C54.5604 177.215 55.2561 177.953 55.8991 178.701C59.0338 182.349 61.1579 186.632 63.6345 190.69C66.111 194.749 69.088 198.727 73.3587 201.198C73.7989 201.452 74.2869 201.698 74.8045 201.661C75.2302 201.631 75.6105 201.414 75.9675 201.197C81.0606 198.107 85.3164 193.844 88.2432 188.901C88.5605 188.365 88.7061 187.472 88.0609 187.342C84.1446 186.556 80.4262 184.938 77.2737 182.648C74.8387 180.879 72.7588 178.734 70.6925 176.601C69.4285 175.296 68.1564 173.982 67.1805 172.48C66.0067 170.674 65.2858 168.617 65.0904 166.517C65.3799 166.395 65.6694 166.274 65.9588 166.152ZM4.74187 216.931C6.85686 217.339 8.86611 216.01 10.5129 214.716C12.423 213.216 14.2945 211.643 16.4653 210.485C18.6362 209.327 21.1763 208.602 23.6514 208.963C24.4915 209.086 25.3248 209.332 26.173 209.273C27.0211 209.215 27.9223 208.736 28.069 207.961C28.4174 206.12 28.692 204.267 28.8919 202.407C28.9205 202.141 28.9369 201.843 28.7484 201.641C28.5661 201.446 28.2578 201.412 27.9795 201.395C19.1441 200.868 10.1274 204.061 3.92948 209.913C2.98985 210.8 2.0764 211.812 1.85766 213.038C1.55164 214.753 2.9033 216.577 4.74187 216.931ZM22.5692 211.521C23.7564 212.788 24.9436 214.055 26.1308 215.322C26.443 213.767 26.937 212.244 27.6015 210.787C24.0587 209.409 19.7659 209.832 16.617 211.871C15.9318 212.315 15.3016 212.827 14.673 213.337C14.4236 213.54 14.1639 213.756 14.0578 214.047C13.9517 214.338 14.0675 214.723 14.3825 214.819C15.554 215.179 16.385 216.133 17.055 217.092C19.2539 220.241 20.4602 223.975 20.489 227.724C22.1744 224.443 23.8597 221.161 25.545 217.88C24.8759 217.706 24.7038 216.928 24.5363 216.304C23.9415 214.089 22.0218 212.422 20.1922 210.891C20.4778 210.539 21.0572 210.494 21.4937 210.67C21.9302 210.845 22.2572 211.189 22.5692 211.521Z" fill="#262A56"/>
</svg>
